<?xml version="1.0" standalone="no"?>
<!DOCTYPE svg PUBLIC "-//W3C//DTD SVG 1.1//EN" "http://www.w3.org/Graphics/SVG/1.1/DTD/svg11.dtd" >
<svg xmlns="http://www.w3.org/2000/svg">
<metadata></metadata>
<defs>
<font id="vodafone_exbregular" horiz-adv-x="1116" >
<font-face units-per-em="2048" ascent="1638" descent="-410" />
<missing-glyph horiz-adv-x="327" />
<glyph horiz-adv-x="1945" />
<glyph horiz-adv-x="1945" />
<glyph unicode="&#xd;" horiz-adv-x="1024" />
<glyph unicode=" "  horiz-adv-x="327" />
<glyph unicode="&#x09;" horiz-adv-x="327" />
<glyph unicode="&#xa0;" horiz-adv-x="327" />
<glyph unicode="!" horiz-adv-x="544" d="M82 160q0 80 52 131t138 51t138.5 -51t52.5 -131q0 -82 -52.5 -132.5t-138.5 -50.5q-82 0 -136 50.5t-54 132.5zM100 475v893h346v-893h-346z" />
<glyph unicode="&#x22;" horiz-adv-x="829" d="M82 760v606h278v-606h-278zM469 760v606h279v-606h-279z" />
<glyph unicode="#" horiz-adv-x="1255" d="M20 324v280h230v205h-230v278h230v248h291v-248h176v248h289v-248h227v-278h-227v-205h227v-280h-227v-248h-289v248h-176v-248h-291v248h-230zM535 598h186v215h-186v-215z" />
<glyph unicode="$" d="M61 104l134 279q29 -23 67.5 -45.5t82.5 -40.5t91 -29.5t92 -11.5q66 0 105 30.5t39 88.5q0 33 -10.5 58.5t-36 47t-68.5 41t-111 39.5q-76 25 -140 58.5t-110 84t-72 117t-26 154.5q0 174 94.5 273.5t247.5 127.5v295h230v-293q109 -12 197.5 -62t148.5 -116l-178 -225 q-61 61 -132 94t-131 33q-72 0 -104.5 -30t-32.5 -77q0 -31 10.5 -52t36 -39.5t70.5 -36t115 -42.5q76 -27 140 -62.5t110.5 -84.5t72 -115.5t25.5 -154.5q0 -174 -88 -286t-262 -145v-288h-230v288q-125 8 -222 47t-155 80z" />
<glyph unicode="%" horiz-adv-x="1562" d="M20 1044q0 66 23 127.5t67 108.5t108.5 74.5t150.5 27.5q84 0 149.5 -27.5t109.5 -74.5t66.5 -108.5t22.5 -127.5t-22.5 -127t-66.5 -107t-109.5 -73.5t-149.5 -27.5q-86 0 -150.5 27.5t-108.5 73.5t-67 107.5t-23 126.5zM57 143l1297 1252l159 -166l-1298 -1258z M272 1049q0 -53 25 -88t70 -35t69.5 35t24.5 88q0 51 -24.5 84.5t-69.5 33.5t-70 -33.5t-25 -84.5zM848 317q0 66 22.5 127.5t66.5 108.5t109.5 74.5t149.5 27.5t148.5 -27.5t108.5 -74.5t66.5 -107.5t22.5 -128.5q0 -66 -22.5 -127t-66.5 -107t-108.5 -73.5t-148.5 -27.5 t-149.5 27.5t-109.5 73.5t-66.5 107.5t-22.5 126.5zM1100 319q0 -53 25.5 -85.5t68.5 -32.5q47 0 71.5 32.5t24.5 85.5t-24.5 87t-71.5 34q-43 0 -68.5 -33.5t-25.5 -87.5z" />
<glyph unicode="&#x26;" horiz-adv-x="1339" d="M31 397q0 131 70.5 236.5t185.5 165.5l65 35q-39 51 -66.5 107t-27.5 128q0 70 28.5 128t80 98t121 62.5t151.5 22.5t143.5 -16t108.5 -43t83 -61.5t64 -73.5l-202 -170q-41 51 -79 79.5t-85 28.5q-35 0 -57.5 -17t-22.5 -52q0 -23 14.5 -50.5t34.5 -56.5l225 -313 l234 287l215 -209l-268 -328l272 -385h-379l-100 143q-35 -35 -69 -64.5t-77 -52t-97 -34.5t-128 -12q-102 0 -184 32.5t-138.5 89t-86 132t-29.5 163.5zM362 410q0 -63 36 -105.5t108 -42.5q49 0 93 31t79 84l-164 229l-51 -33q-53 -35 -77 -74.5t-24 -88.5z" />
<glyph unicode="'" horiz-adv-x="442" d="M82 760v606h278v-606h-278z" />
<glyph unicode="(" horiz-adv-x="696" d="M72 698q0 158 37.5 289t103.5 234.5t151 180.5t181 126l129 -189q-113 -92 -185.5 -248.5t-72.5 -392.5t73.5 -393.5t186.5 -249.5l-131 -186q-96 49 -181 125t-151 179t-103.5 234.5t-37.5 290.5z" />
<glyph unicode=")" horiz-adv-x="694" d="M20 55q113 92 186 250t73 393q0 233 -73 391t-186 250l130 189q94 -49 180 -125t151.5 -179.5t103.5 -234.5t38 -291t-38 -291t-103.5 -234t-151.5 -179t-180 -125z" />
<glyph unicode="*" horiz-adv-x="884" d="M53 1235l111 166l178 -121v205h193v-205l186 121l113 -166l-216 -137l209 -137l-100 -177l-192 125v-215h-193v215l-186 -125l-99 177l211 135z" />
<glyph unicode="+" d="M80 535v290h334v379h288v-379h334v-290h-334v-375h-288v375h-334z" />
<glyph unicode="," horiz-adv-x="481" d="M51 141q0 72 46 125t132 53t138.5 -59t52.5 -154q0 -94 -58.5 -194.5t-187.5 -192.5l-88 111q35 25 72 64.5t47 70.5q-66 10 -110 57.5t-44 118.5z" />
<glyph unicode="-" horiz-adv-x="643" d="M53 412v290h537v-290h-537z" />
<glyph unicode="." horiz-adv-x="471" d="M61 147q0 74 47.5 123t129.5 49q78 0 125 -49t47 -123t-46 -120.5t-126 -46.5q-82 0 -129.5 47t-47.5 120z" />
<glyph unicode="/" horiz-adv-x="1038" d="M0 59l793 1512l245 -133l-788 -1514z" />
<glyph unicode="0" d="M43 676q0 147 28.5 276t91 224.5t160 149.5t236.5 54q137 0 234.5 -54t160 -149.5t91 -224.5t28.5 -276t-28.5 -276.5t-91 -224.5t-160 -149.5t-234.5 -54.5q-139 0 -236.5 54.5t-160 149.5t-91 224t-28.5 277zM397 676q0 -199 38 -303.5t124 -104.5t124 104.5t38 303.5 t-38 303t-124 104t-124 -104.5t-38 -302.5z" />
<glyph unicode="1" d="M104 1077l471 279h263v-1356h-355v946l-231 -141z" />
<glyph unicode="2" d="M72 1208q39 31 91 61.5t113.5 55.5t133 40t151.5 15q100 0 183 -26.5t142.5 -78.5t92.5 -127t33 -171q0 -135 -54.5 -227.5t-144.5 -159.5l-385 -291h610v-299h-946v229q0 96 27.5 158t103.5 121l318 250q63 49 90.5 92t27.5 102q0 57 -37.5 90t-109.5 33 q-80 0 -150.5 -40t-132.5 -87z" />
<glyph unicode="3" d="M31 147l143 275q66 -61 158 -103.5t180 -42.5q86 0 136 38t50 110q0 76 -63.5 119t-185.5 43q-18 0 -49 -3t-74 -8v240q49 63 113.5 132t127.5 118h-461v291h889v-285q-98 -57 -181 -130t-150 -148q193 -12 289 -116t96 -288q0 -102 -41 -180t-112 -131t-163 -80 t-194 -27q-98 0 -176 15.5t-139.5 40t-108.5 56.5t-84 64z" />
<glyph unicode="4" d="M39 260v275l604 821h297v-821h137v-275h-137v-260h-334v260h-567zM322 535h284v385z" />
<glyph unicode="5" d="M29 121l133 291q27 -25 64.5 -48.5t80.5 -43t89 -32t93 -12.5q39 0 75 10.5t63.5 30t44 50t16.5 73.5q0 37 -18.5 70t-59.5 59.5t-104.5 42t-151.5 15.5q-43 0 -92 -3t-106 -14v746h813v-291h-510v-172q119 0 223 -21.5t182 -74t123 -141.5t45 -222q0 -117 -41 -204 t-110.5 -144t-161.5 -86t-197 -29q-98 0 -176 14.5t-137 37t-103.5 49t-76.5 49.5z" />
<glyph unicode="6" d="M72 530q0 92 11 176.5t39 162t76 150.5t121 144q49 47 114 87t136.5 71t148.5 50.5t150 25.5l82 -262q-74 -4 -146.5 -24.5t-136 -56.5t-112.5 -86t-72 -112q33 16 80 28.5t103 12.5q88 0 159.5 -34t122.5 -93t79 -142.5t28 -183.5q0 -98 -32 -184t-93.5 -150.5 t-152.5 -101.5t-210 -37q-104 0 -194 37t-156.5 108.5t-105.5 175t-39 238.5zM416 492q0 -121 45 -172.5t104 -51.5q66 0 105 47.5t39 133.5t-41 137t-103 51q-47 0 -80.5 -11.5t-54.5 -23.5q-4 -14 -9 -46t-5 -64z" />
<glyph unicode="7" d="M72 1059v297h983v-246q-92 -117 -171 -242t-143.5 -261t-110.5 -286.5t-71 -320.5h-350q16 168 63 326.5t110.5 297t134.5 250t134 185.5h-579z" />
<glyph unicode="8" d="M74 389q0 109 46 187.5t132 125.5q-74 49 -116 119t-42 180q0 74 31 142.5t89 121t145 84t202 31.5q113 0 199 -30.5t145.5 -83t90 -121t30.5 -141.5q0 -111 -42 -181.5t-114 -117.5q84 -49 129 -127t45 -189q0 -82 -29.5 -157.5t-90 -133t-151.5 -92.5t-214 -35 q-121 0 -212 35t-151.5 92.5t-91 133t-30.5 157.5zM406 414q0 -70 40.5 -118t114.5 -48q72 0 112 47t40 117q0 68 -41 114.5t-113 46.5t-112.5 -46t-40.5 -113zM422 967q0 -59 37 -104.5t100 -45.5t100 45.5t37 106.5q0 59 -36.5 102t-100.5 43q-61 0 -99 -43t-38 -104z" />
<glyph unicode="9" d="M63 907q0 98 32 184.5t94.5 151t153.5 102t208 37.5q106 0 198.5 -36.5t158 -107.5t103.5 -173.5t38 -235.5q0 -170 -41 -325.5t-132.5 -274t-239 -189.5t-360.5 -71q-25 0 -50 1t-52 3l37 283q20 -2 36.5 -3t33.5 -1q164 0 247.5 72.5t110.5 187.5q-31 -16 -81 -27.5 t-103 -11.5q-90 0 -163 34t-124 92t-78 138t-27 170zM412 915q0 -78 42 -129t111 -51q74 0 125 27q4 16 7 44t3 62h2q0 104 -43 164t-110 60q-33 0 -58.5 -15.5t-43 -40t-26.5 -56.5t-9 -65z" />
<glyph unicode=":" horiz-adv-x="471" d="M61 147q0 74 47.5 123t129.5 49q78 0 125 -49t47 -123t-46 -120.5t-126 -46.5q-82 0 -129.5 47t-47.5 120zM61 833q0 74 47.5 123t129.5 49q78 0 125 -49t47 -123t-46 -120.5t-126 -46.5q-82 0 -129.5 47t-47.5 120z" />
<glyph unicode=";" horiz-adv-x="483" d="M51 141q0 72 46 125t132 53t138.5 -59t52.5 -154q0 -94 -58.5 -194.5t-187.5 -192.5l-88 111q35 25 72 64.5t47 70.5q-66 10 -110 57.5t-44 118.5zM73 833q0 74 47.5 123t129.5 49q78 0 125 -49t47 -123t-46 -120.5t-126 -46.5q-82 0 -129.5 47t-47.5 120z" />
<glyph unicode="&#x3c;" d="M66 512v293l903 344l82 -285l-633 -200l653 -213l-84 -299z" />
<glyph unicode="=" d="M80 289v291h956v-291h-956zM80 778v291h956v-291h-956z" />
<glyph unicode="&#x3e;" d="M47 451l651 213l-632 200l81 285l904 -344v-293l-920 -360z" />
<glyph unicode="?" horiz-adv-x="903" d="M-25 1174q29 33 72 71.5t100.5 71.5t131 54.5t165.5 21.5q205 0 317.5 -102.5t112.5 -272.5q0 -111 -49 -183.5t-118 -132.5q-76 -66 -101.5 -110.5t-25.5 -106.5v-30h-326v80q0 86 29.5 146t89.5 114q72 66 115.5 112.5t43.5 102.5q0 47 -32.5 74.5t-85.5 27.5 q-51 0 -111.5 -34t-126.5 -107zM229 160q0 80 54.5 131t136.5 51q84 0 138 -51t54 -131q0 -82 -54 -132.5t-138 -50.5q-82 0 -136.5 50.5t-54.5 132.5z" />
<glyph unicode="@" horiz-adv-x="1630" d="M72 504q0 227 69.5 395t183 277.5t261 163t303.5 53.5q135 0 246.5 -30t190.5 -92.5t123 -158.5t44 -227v-844h-332v51q-41 -20 -91 -33.5t-112 -13.5q-84 0 -152.5 33t-116.5 91t-74.5 139t-26.5 179q0 109 29.5 192t82 138t123 84t154.5 29q59 0 104 -11.5t80 -27.5v24 q0 92 -72.5 145.5t-211.5 53.5q-80 0 -164 -32.5t-154 -104.5t-114 -185.5t-44 -275.5q0 -141 29 -263t98.5 -213t183 -143.5t283.5 -52.5q139 0 255 20.5t204 53.5l53 -276q-41 -14 -98 -27.5t-127 -25t-146.5 -17.5t-154.5 -6q-238 0 -409 68.5t-282.5 192.5t-164.5 296 t-53 381zM913 485q0 -106 41 -145t97 -39q31 0 58.5 10.5t49.5 24.5v299q-20 10 -46 18.5t-60 8.5q-59 0 -99.5 -38t-40.5 -139z" />
<glyph unicode="A" horiz-adv-x="1308" d="M-12 0l495 1368h346l492 -1368h-367l-84 233h-434l-84 -233h-364zM516 516h275l-138 461z" />
<glyph unicode="B" horiz-adv-x="1212" d="M135 0v1368h516q100 0 183.5 -23.5t142.5 -69.5t92 -113.5t33 -155.5q0 -115 -52.5 -181.5t-115.5 -103.5q45 -14 88 -42t75.5 -69t53 -95t20.5 -124q0 -121 -62 -216t-183 -142q-45 -16 -96.5 -24.5t-106.5 -8.5h-588zM477 293h166q84 0 121 24q55 37 55 103 q0 37 -16.5 68.5t-46.5 50.5q-41 22 -109 22h-6h-164v-268zM477 825h119q70 0 104 21q33 18 47.5 46.5t14.5 63.5q0 39 -19.5 69t-58.5 46q-16 6 -45 9t-53 3h-109v-258z" />
<glyph unicode="C" horiz-adv-x="1216" d="M72 680q0 176 47 310t130 223.5t196.5 134.5t246.5 45q96 0 172 -23.5t135.5 -62.5t105.5 -90.5t81 -106.5l-234 -190q-53 88 -114.5 126.5t-147.5 38.5q-123 0 -190.5 -102t-67.5 -303q0 -195 80 -300.5t227 -105.5q109 0 184.5 43t135.5 95l108 -285 q-66 -57 -184.5 -106.5t-277.5 -49.5q-154 0 -272 49.5t-197.5 141.5t-121.5 223t-42 295z" />
<glyph unicode="D" horiz-adv-x="1312" d="M135 0v1368h445q88 0 175 -16.5t160 -51.5q84 -39 147.5 -101t106.5 -142t64.5 -173.5t21.5 -195.5q0 -205 -87 -370.5t-257 -247.5q-70 -33 -151.5 -51.5t-173.5 -18.5h-451zM485 315h88q113 0 187 52q68 47 103.5 129t35.5 186t-32.5 185t-94.5 128q-39 29 -90 43.5 t-107 14.5h-90v-738z" />
<glyph unicode="E" horiz-adv-x="1150" d="M135 0v1368h924v-317h-574v-222h469v-292h-469v-220h615v-317h-965z" />
<glyph unicode="F" horiz-adv-x="1077" d="M135 0v1368h912v-317h-562v-248h449v-311h-449v-492h-350z" />
<glyph unicode="G" horiz-adv-x="1286" d="M72 682q0 172 45 304t125 222t192.5 137.5t247.5 47.5q94 0 169 -18.5t136.5 -54.5t112.5 -88t94 -118l-244 -190q-49 76 -102 118.5t-143 42.5q-121 0 -197 -99t-76 -308q0 -102 21.5 -178t59.5 -127t89 -76t111 -25q41 0 81 4.5t72 10.5v192h-184v271h510v-693 q-90 -37 -214 -61.5t-290 -24.5q-141 0 -255 49.5t-194.5 141.5t-123.5 224t-43 296z" />
<glyph unicode="H" horiz-adv-x="1376" d="M135 0v1368h350v-508h406v508h350v-1368h-350v543h-406v-543h-350z" />
<glyph unicode="I" horiz-adv-x="618" d="M135 0v1368h350v-1368h-350z" />
<glyph unicode="J" horiz-adv-x="901" d="M0 41l80 297q12 -6 35.5 -16.5t51.5 -19.5t59.5 -15t62.5 -6q72 0 108.5 35.5t36.5 134.5v915h352v-991q0 -203 -118.5 -303.5t-317.5 -100.5q-53 0 -108.5 7.5t-102.5 17.5t-84 22.5t-55 22.5z" />
<glyph unicode="K" horiz-adv-x="1294" d="M135 0v1366h350v-532h88q39 0 70 19t57 91l154 422h387l-203 -479q-29 -70 -69.5 -110t-89.5 -56q59 -25 98 -69t67 -115l226 -537h-391l-136 356q-31 82 -62.5 121t-90.5 39h-105v-516h-350z" />
<glyph unicode="L" horiz-adv-x="1107" d="M135 0v1368h350v-1051h582v-317h-932z" />
<glyph unicode="M" horiz-adv-x="1681" d="M102 0l64 1368h389l293 -911l272 911h383l76 -1368h-326l-49 762l-227 -770h-256l-256 766l-29 -758h-334z" />
<glyph unicode="N" horiz-adv-x="1384" d="M135 0v1368h352l422 -721v721h342v-1368h-317l-457 770v-770h-342z" />
<glyph unicode="O" horiz-adv-x="1380" d="M72 684q0 145 39 274t116.5 225.5t193.5 153t267 56.5q154 0 269.5 -56.5t193.5 -153t117 -225.5t39 -274t-39 -275t-117 -227.5t-193.5 -154t-269.5 -56.5q-152 0 -267.5 56.5t-193 154t-116.5 227.5t-39 275zM432 684q0 -86 16.5 -160.5t48 -128t80 -84t111.5 -30.5 t112.5 30.5t81 84t48 128t16.5 160.5t-16.5 160t-48 127t-80.5 83.5t-113 30.5q-63 0 -111.5 -30.5t-80 -83.5t-48 -127t-16.5 -160z" />
<glyph unicode="P" horiz-adv-x="1202" d="M135 0v1368h498q209 0 344 -84q92 -55 138 -151.5t46 -217.5q0 -137 -59.5 -247.5t-173.5 -163.5q-61 -29 -132 -42t-149 -13h-168v-449h-344zM479 748h144q80 0 127 30q35 23 49 56.5t14 72.5q0 43 -17.5 79t-52.5 54q-23 12 -49 18.5t-67 6.5h-148v-317z" />
<glyph unicode="Q" horiz-adv-x="1411" d="M72 684q0 145 39 274t116.5 225.5t193.5 153t267 56.5q154 0 269.5 -56.5t193.5 -153t117 -225.5t39 -274q0 -96 -16.5 -184t-51.5 -166q78 -66 133 -126.5t80 -94.5l-190 -193q-20 29 -72.5 81t-114.5 105q-74 -63 -170 -99t-217 -36q-152 0 -267.5 56.5t-193 154 t-116.5 227.5t-39 275zM432 684q0 -86 16.5 -160.5t48 -128t80 -84t111.5 -30.5q29 0 58.5 5t52.5 19q-41 29 -93.5 54.5t-99.5 48.5l119 235q53 -25 109.5 -55.5t99.5 -61.5q16 76 16 158q0 86 -16 160t-50 127t-83 83.5t-113 30.5q-63 0 -111.5 -30.5t-80 -83.5t-48 -127 t-16.5 -160z" />
<glyph unicode="R" horiz-adv-x="1241" d="M135 0v1368h539q100 0 187 -26.5t151.5 -79t101.5 -132t37 -186.5q0 -133 -64.5 -218t-156.5 -126q76 -23 112.5 -77t65.5 -158l98 -365h-352l-84 297q-12 45 -25.5 78t-32 53.5t-47 29.5t-73.5 9h-113v-467h-344zM479 760h131q102 0 145.5 37.5t43.5 111.5q0 78 -41 117 t-146 39h-133v-305z" />
<glyph unicode="S" d="M41 113l141 286q29 -23 71 -45t91 -42.5t101.5 -33t101.5 -12.5q88 0 131 28t43 77q0 29 -10.5 51t-39 41.5t-78.5 39t-128 44.5q-94 29 -170 64.5t-130 84.5t-83 118t-29 165q0 92 34 168t98.5 131t158.5 85t213 30q100 0 178 -18.5t138.5 -47.5t104.5 -64.5t75 -68.5 l-185 -233q-61 70 -138 108.5t-163 38.5t-127 -27.5t-41 -72.5q0 -25 11.5 -44.5t40 -38t78 -37t126.5 -42.5q90 -29 165 -63.5t129.5 -86t84 -125.5t29.5 -178q0 -109 -42 -187.5t-112.5 -130.5t-164 -78t-193.5 -26q-180 0 -303 42t-207 100z" />
<glyph unicode="T" horiz-adv-x="1114" d="M20 1051v317h1074v-317h-359v-1051h-352v1051h-363z" />
<glyph unicode="U" horiz-adv-x="1361" d="M121 492v876h350v-854q0 -111 55.5 -170t155.5 -59t154.5 59t54.5 170v854h350v-876q0 -123 -40 -219.5t-113.5 -163t-177 -102.5t-228.5 -36q-127 0 -230.5 36t-177 102.5t-113.5 163t-40 219.5z" />
<glyph unicode="V" horiz-adv-x="1302" d="M-12 1368h397l281 -870l282 870h365l-496 -1368h-309z" />
<glyph unicode="W" horiz-adv-x="1669" d="M10 1368h352l140 -817l194 817h279l205 -827l131 827h348l-289 -1368h-311l-232 856l-211 -856h-317z" />
<glyph unicode="X" horiz-adv-x="1234" d="M-12 0l436 705l-406 663h396l207 -364l206 364h390l-404 -659l434 -709h-401l-230 406l-233 -406h-395z" />
<glyph unicode="Y" horiz-adv-x="1245" d="M-12 1368h397l246 -481l233 481h393l-456 -836v-532h-350v532z" />
<glyph unicode="Z" horiz-adv-x="1200" d="M72 0v268l598 783h-561v317h1001v-276l-590 -775h608v-317h-1056z" />
<glyph unicode="[" horiz-adv-x="653" d="M109 -293v1800h534v-266h-203v-1268h203v-266h-534z" />
<glyph unicode="\" horiz-adv-x="1038" d="M0 1438l248 133l790 -1510l-247 -137z" />
<glyph unicode="]" horiz-adv-x="653" d="M10 -27h203v1268h-203v266h533v-1800h-533v266z" />
<glyph unicode="^" horiz-adv-x="1073" d="M37 616l352 750h295l352 -750l-293 -75l-206 493l-205 -493z" />
<glyph unicode="_" horiz-adv-x="1024" d="M0 -307h1024v-144h-1024v144z" />
<glyph unicode="`" horiz-adv-x="880" d="M174 1288l123 225l408 -264l-80 -147z" />
<glyph unicode="a" horiz-adv-x="1036" d="M51 287q0 74 26.5 129t72 94t105.5 63.5t126 34.5q61 10 115.5 14.5t99.5 6.5v35q0 112 -123 112h-2q-59 0 -118.5 -19.5t-114.5 -51.5l-99 217q25 16 66 34.5t92 35t109.5 27.5t117.5 11q186 0 297 -96t111 -297v-637h-287l-27 78q-41 -39 -106.5 -66.5t-153.5 -27.5 q-66 0 -122 20.5t-97 60t-64.5 95t-23.5 127.5zM369 313q0 -39 27.5 -64.5t78.5 -25.5q35 0 66.5 12.5t54.5 30.5v185q-29 -2 -58.5 -5.5t-60.5 -9.5q-59 -12 -83.5 -44t-24.5 -79z" />
<glyph unicode="b" horiz-adv-x="1136" d="M109 59v1309h342v-364q39 12 83 19t101 7q104 0 185 -38t136.5 -105.5t85 -159.5t29.5 -201q0 -139 -40 -241.5t-112.5 -171t-171 -102.5t-215.5 -34q-129 0 -233 24t-190 58zM451 256q23 -6 42 -9t48 -3q86 0 140 66.5t54 199.5q0 127 -53 189.5t-133 62.5 q-29 0 -51.5 -5t-46.5 -14v-487z" />
<glyph unicode="c" horiz-adv-x="1013" d="M66 500q0 127 36.5 225t102 165.5t158 103.5t200.5 36q88 0 154.5 -22.5t116 -59.5t83 -84t56.5 -96l-236 -152q-33 68 -71.5 107t-94.5 39q-78 0 -123 -61.5t-45 -186.5q0 -133 53.5 -197.5t151.5 -64.5q78 0 130.5 28.5t99.5 73.5l108 -254q-49 -41 -145 -80.5 t-234 -39.5q-231 0 -366 134t-135 386z" />
<glyph unicode="d" horiz-adv-x="1134" d="M66 506q0 111 30.5 206t88 165.5t139.5 111.5t186 41q47 0 95 -7t83 -24v369h342v-1368h-297l-16 78q-31 -37 -84 -67.5t-150 -30.5q-96 0 -173 39.5t-131 110.5t-83.5 167t-29.5 209zM401 508q0 -123 45.5 -195.5t122.5 -72.5q39 0 71 16t48 39v446q-23 10 -45 17.5 t-57 7.5q-45 0 -79 -19.5t-57.5 -54.5t-36 -82t-12.5 -102z" />
<glyph unicode="e" horiz-adv-x="1071" d="M66 504q0 125 36.5 223t102 166t155 102.5t191.5 34.5q213 0 338 -147.5t127 -448.5h-617q4 -92 58.5 -141t158.5 -49q86 0 143.5 31.5t112.5 78.5l101 -241q-25 -23 -62 -45.5t-86 -43t-113.5 -32.5t-144.5 -12q-109 0 -200 31.5t-158.5 97t-105 164t-37.5 231.5z M401 625h295q-4 78 -44 127t-99 49q-63 0 -104 -47t-48 -129z" />
<glyph unicode="f" horiz-adv-x="708" d="M16 756v252h129v24q0 174 96.5 267.5t262.5 93.5q92 0 164.5 -17.5t113.5 -34.5l-34 -233q-29 14 -67 22.5t-79 8.5q-115 0 -115 -111v-20h201v-252h-201v-756h-342v756h-129z" />
<glyph unicode="g" horiz-adv-x="1126" d="M66 492q0 256 146 397t406 141q117 0 220.5 -11t185.5 -28v-950q0 -139 -45 -227t-119 -137.5t-170 -68t-198 -18.5q-74 0 -139.5 9.5t-116 22.5t-84 26.5t-43.5 19.5l61 258q51 -29 138 -53.5t175 -24.5q63 0 102.5 15.5t62 40t31.5 55.5t9 61q-31 -10 -68.5 -15 t-80.5 -5q-219 0 -346 127t-127 365zM401 496q0 -123 54.5 -187.5t142.5 -64.5q51 0 84 16v500q-43 6 -78 6q-94 0 -148.5 -72.5t-54.5 -197.5z" />
<glyph unicode="h" horiz-adv-x="1165" d="M109 0v1368h342v-416q43 31 105 54.5t146 23.5q178 0 268.5 -103.5t90.5 -287.5v-639h-342v598q0 86 -33 126t-86 40q-45 0 -84 -20.5t-65 -43.5v-700h-342z" />
<glyph unicode="i" horiz-adv-x="571" d="M109 1247q0 68 46 115t132 47t132 -47t46 -115q0 -72 -46 -114.5t-132 -42.5t-132 43t-46 114zM115 0v1008h340v-1008h-340z" />
<glyph unicode="j" horiz-adv-x="577" d="M-41 -150q70 33 116 87.5t46 156.5v914h340v-979q0 -92 -24.5 -161t-71 -122t-111 -91t-143.5 -69zM115 1247q0 68 46 115t132 47t132 -47t46 -115q0 -72 -46 -114.5t-132 -42.5t-132 43t-46 114z" />
<glyph unicode="k" horiz-adv-x="1120" d="M109 0v1366h342v-680h24q37 0 68.5 22.5t62.5 94.5l86 205h361l-133 -297q-23 -49 -51.5 -83t-84.5 -57q55 -10 91 -47t59 -94l176 -430h-362l-103 248q-18 45 -32.5 73.5t-31 44t-36 21.5t-47.5 6h-47v-393h-342z" />
<glyph unicode="l" horiz-adv-x="645" d="M102 272v1094h342v-1038q0 -41 13.5 -60.5t52.5 -19.5q33 0 72 16l43 -244q-29 -12 -95.5 -26t-142.5 -14q-141 0 -213 69.5t-72 222.5z" />
<glyph unicode="m" horiz-adv-x="1734" d="M109 0v1008h301l14 -84q41 41 108.5 73.5t149.5 32.5q86 0 155.5 -26.5t116.5 -81.5q66 51 141.5 79.5t168.5 28.5q190 0 278 -101.5t88 -287.5v-641h-342v610q0 72 -25.5 113t-95.5 41q-39 0 -71.5 -17.5t-61.5 -37.5q2 -10 3 -30t1 -30v-649h-340v610q0 68 -24.5 111 t-87.5 43q-41 0 -76 -20.5t-59 -43.5v-700h-342z" />
<glyph unicode="n" horiz-adv-x="1169" d="M109 0v1008h301l14 -86q47 43 119.5 75.5t163.5 32.5q160 0 259 -96t99 -297v-637h-344v598q0 80 -32 123t-93 43q-45 0 -81 -20.5t-64 -45.5v-698h-342z" />
<glyph unicode="o" horiz-adv-x="1128" d="M61 510q0 113 34 209t98.5 164.5t156.5 107.5t211 39t212 -39t157.5 -108.5t98.5 -164.5t34 -208q0 -115 -34 -212t-98.5 -168t-157.5 -110.5t-212 -39.5t-211 39.5t-156.5 110.5t-98.5 168t-34 212zM399 510q0 -121 40 -194.5t122 -73.5q84 0 124 73.5t40 194.5 q0 117 -41 186.5t-123 69.5q-80 0 -121 -69.5t-41 -186.5z" />
<glyph unicode="p" horiz-adv-x="1136" d="M109 -385v1393h297l16 -78q35 35 91 67.5t144 32.5q96 0 173 -38t130.5 -106.5t82 -165.5t28.5 -216q0 -115 -31.5 -211t-91 -166t-143.5 -108.5t-191 -38.5q-96 0 -163 28v-393h-342zM451 264q20 -10 41.5 -16t52.5 -6q92 0 141 69.5t49 190.5q0 129 -44 198.5 t-122 69.5q-41 0 -71.5 -21.5t-46.5 -37.5v-447z" />
<glyph unicode="q" horiz-adv-x="1132" d="M66 492q0 256 146 397t406 141q117 0 219.5 -12t186.5 -27v-1376h-342v379q-31 -6 -66.5 -10t-89.5 -4q-104 0 -189 35.5t-145.5 102t-93 161t-32.5 213.5zM401 496q0 -123 55.5 -187.5t143.5 -64.5q29 0 47.5 5t34.5 13v498q-43 6 -78 6q-94 0 -148.5 -72.5 t-54.5 -197.5z" />
<glyph unicode="r" horiz-adv-x="796" d="M109 0v1008h303l20 -103q35 41 94.5 79t143.5 38q35 0 69.5 -5t57.5 -16l-41 -280q-33 10 -58.5 13t-50.5 3q-35 0 -64.5 -11t-54 -27.5t-45 -35t-32.5 -32.5v-631h-342z" />
<glyph unicode="s" horiz-adv-x="978" d="M45 100l105 234q23 -18 59.5 -38t80.5 -37t93 -28.5t96 -11.5t82 12.5t35 51.5q0 35 -33 52t-123 40q-98 25 -168.5 53.5t-116.5 66t-67.5 90t-21.5 124.5q0 76 30.5 135t87 101t136 63.5t176.5 21.5q82 0 147.5 -12t114.5 -30.5t84 -39t55 -35.5l-102 -217 q-25 18 -59 37t-71.5 33t-77.5 23.5t-77 9.5q-47 0 -85 -10.5t-38 -49.5q0 -16 6 -27.5t24.5 -23.5t53.5 -24.5t94 -26.5q92 -25 159 -52.5t111 -65.5t65.5 -89t21.5 -121q0 -90 -36 -152.5t-97.5 -101.5t-141.5 -57t-168 -18q-80 0 -150.5 12t-127 30.5t-96 40t-60.5 37.5z " />
<glyph unicode="t" horiz-adv-x="774" d="M16 756v252h136v245h340v-245h221v-252h-221v-428q0 -47 19 -66.5t60 -19.5q35 0 66 15t55 34l78 -223q-59 -41 -136 -64.5t-185 -23.5q-145 0 -221 78.5t-76 220.5v477h-136z" />
<glyph unicode="u" horiz-adv-x="1167" d="M104 369v639h345v-596q0 -78 27.5 -121t90.5 -43q51 0 87 19.5t61 39.5v701h344v-1008h-299l-19 84q-49 -47 -120.5 -77t-157.5 -30q-168 0 -263.5 99.5t-95.5 292.5z" />
<glyph unicode="v" horiz-adv-x="1097" d="M-12 1008h374l201 -600l193 600h354l-408 -1008h-292z" />
<glyph unicode="w" horiz-adv-x="1470" d="M-12 1008h342l141 -551l143 551h248l139 -564l142 564h340l-318 -1008h-280l-150 571l-147 -571h-279z" />
<glyph unicode="x" horiz-adv-x="1056" d="M-12 1008h381l168 -273l168 273h350l-338 -494l352 -514h-381l-166 281l-174 -281h-354l350 502z" />
<glyph unicode="y" horiz-adv-x="1134" d="M-12 1008h377l208 -729q31 74 61 163.5t56.5 185t51 193t42.5 187.5h340q-31 -139 -72.5 -274.5t-87.5 -258.5t-93.5 -229.5t-90.5 -190.5q-47 -92 -105.5 -177t-141 -150.5t-198.5 -105.5t-276 -42l-28 287q109 0 195.5 28.5t129.5 94.5z" />
<glyph unicode="z" horiz-adv-x="1052" d="M66 0v215l479 539h-457v254h875v-232l-465 -524h481v-252h-913z" />
<glyph unicode="{" horiz-adv-x="733" d="M43 588v192q78 10 115 43t37 123v219q0 141 68.5 211t207.5 99q57 12 115.5 17t115.5 5l21 -246q-119 -6 -163 -45t-44 -133v-170q0 -109 -51 -158t-127 -61q76 -12 127 -61.5t51 -157.5v-170q0 -94 44 -133t163 -45l-21 -246q-57 0 -115.5 5t-115.5 18 q-139 29 -207.5 98t-68.5 211v219q0 90 -37 123t-115 43z" />
<glyph unicode="|" horiz-adv-x="495" d="M117 -152v1663h262v-1663h-262z" />
<glyph unicode="}" horiz-adv-x="733" d="M10 117q119 6 164 45t45 133v170q0 109 51.5 158t124.5 61q-74 12 -125 61.5t-51 157.5v170q0 94 -45 133t-164 45l21 246q59 0 116.5 -5t116.5 -17q139 -29 207 -98.5t68 -211.5v-219q0 -90 36.5 -122.5t116.5 -43.5v-192q-80 -10 -116.5 -43t-36.5 -123v-219 q0 -141 -68 -211t-207 -98q-59 -12 -116.5 -17.5t-116.5 -5.5z" />
<glyph unicode="~" horiz-adv-x="921" d="M-4 909q2 88 21.5 167t54 136.5t88 91t125.5 33.5q63 0 110 -22.5t82 -48t64.5 -48t60.5 -22.5q70 0 80 139h244q-8 -193 -79 -309.5t-198 -116.5q-66 0 -109.5 22.5t-79.5 49.5t-69 49.5t-72 22.5q-41 0 -57 -36t-22 -108h-244z" />
<glyph unicode="&#xa1;" horiz-adv-x="544" d="M82 825q0 82 54 132.5t136 50.5q84 0 137.5 -50.5t53.5 -132.5q0 -80 -53.5 -131t-137.5 -51t-137 51t-53 131zM100 -383v893h346v-893h-346z" />
<glyph unicode="&#xa2;" d="M111 682q0 182 93 297t257 145v242h256v-238q78 -10 147.5 -43.5t116.5 -74.5l-154 -228q-35 31 -83 54.5t-123 23.5q-86 0 -132.5 -53t-46.5 -127q0 -82 47.5 -135t133.5 -53q66 0 119 19t92 52l147 -219q-20 -25 -52 -45t-69 -36.5t-74.5 -26t-68.5 -11.5v-248h-256 v252q-156 37 -253 152t-97 301z" />
<glyph unicode="&#xa3;" d="M74 510v274h145v156q0 98 27.5 179t83 139.5t139.5 90t197 31.5q94 0 163.5 -21.5t119.5 -55t86 -75.5t65 -81l-240 -168q-33 53 -78 87t-92 34q-59 0 -93 -32t-34 -107v-177h367v-274h-367v-236h494v-274h-838v510h-145z" />
<glyph unicode="&#xa4;" horiz-adv-x="1204" d="M25 336l135 135q-29 53 -45.5 111.5t-16.5 124.5t16.5 124t45.5 111l-135 135l196 197l139 -137q53 27 110.5 41t121.5 14q61 0 119.5 -15.5t111.5 -41.5l140 139l196 -197l-135 -135q29 -53 45 -111.5t16 -123.5q0 -63 -16 -123t-45 -113l135 -135l-196 -197l-138 140 q-53 -27 -110.5 -42.5t-122.5 -15.5q-63 0 -120.5 15.5t-111.5 42.5l-139 -140zM354 707q0 -51 18.5 -95.5t50.5 -77t76 -52t93 -19.5q57 0 102 22.5t75 58.5t45 79t15 84q0 59 -23.5 105t-58 77t-76.5 46t-79 15q-57 0 -101.5 -24.5t-75 -60.5t-46 -79t-15.5 -79z" />
<glyph unicode="&#xa5;" d="M-16 1356h378l199 -506l189 506h370l-309 -654h203v-270h-285v-432h-346v432h-295v270h211z" />
<glyph unicode="&#xa6;" horiz-adv-x="495" d="M117 -152v633h262v-633h-262zM117 879v632h262v-632h-262z" />
<glyph unicode="&#xa7;" horiz-adv-x="911" d="M43 -168l129 231q18 -16 45 -34.5t59.5 -35t66.5 -27.5t67 -11q88 0 88 68q0 23 -10.5 44t-36 45.5t-70.5 56.5t-113 77q-94 61 -149.5 139t-55.5 195q0 86 45.5 151.5t116.5 99.5q-27 27 -47 53.5t-35.5 55.5t-23.5 62.5t-8 78.5q0 68 27.5 125.5t75.5 98.5t113.5 64.5 t141.5 23.5q117 0 214 -41t173 -117l-151 -193q-111 104 -209 105q-35 0 -56.5 -17.5t-21.5 -44.5q0 -18 8 -34.5t29.5 -38t59.5 -50t97 -71.5q111 -80 171.5 -156t60.5 -192q0 -47 -12.5 -87t-32 -72t-42 -58.5t-42.5 -46.5q41 -45 70.5 -101.5t29.5 -136.5 q0 -82 -32.5 -144.5t-86 -105.5t-125 -64.5t-147.5 -21.5q-117 0 -215 36t-166 91zM371 590q0 -29 17.5 -50.5t51.5 -47.5l62 -50q30 25 30 72q0 27 -14 51.5t-39 46.5l-59 50q-49 -20 -49 -72z" />
<glyph unicode="&#xa8;" horiz-adv-x="880" d="M70 1303q0 66 43 107.5t110 41.5q66 0 110 -42t44 -107q0 -63 -44 -105.5t-110 -42.5q-68 0 -110.5 42t-42.5 106zM504 1303q0 66 43 107.5t110 41.5q66 0 110 -42t44 -107q0 -63 -44 -105.5t-110 -42.5q-68 0 -110.5 42t-42.5 106z" />
<glyph unicode="&#xa9;" horiz-adv-x="1587" d="M61 608q0 143 46.5 279.5t138.5 244t229 173t320 65.5q180 0 317 -65.5t229.5 -173t138.5 -244t46 -279.5t-46 -281.5t-138.5 -246t-229.5 -173t-317 -65.5q-182 0 -319.5 65.5t-229.5 173t-138.5 246t-46.5 281.5zM244 608q0 -117 35.5 -225.5t104.5 -192.5t172 -134 t239 -50q135 0 237.5 50t172 134t104 192.5t34.5 225.5q0 115 -34.5 223.5t-104 192.5t-172 134t-237.5 50t-238.5 -50t-173.5 -134t-104.5 -192.5t-34.5 -223.5zM379 604q0 119 35 208t93 147.5t135 87t161 28.5q135 0 221 -54t139 -163l-178 -94q-33 63 -73 99t-105 36 q-92 0 -155.5 -70.5t-63.5 -224.5q0 -135 65.5 -212t163.5 -77q51 0 93 25t87 102l174 -100q-70 -117 -156.5 -161t-203.5 -44q-96 0 -176 32t-137.5 92.5t-88 146.5t-30.5 196z" />
<glyph unicode="&#xaa;" horiz-adv-x="749" d="M43 834q0 57 23.5 100t63.5 71.5t94.5 45t113.5 22.5q25 4 52.5 5t49.5 3v29q0 31 -17 50.5t-65 19.5q-45 0 -86 -14.5t-88 -41.5l-78 150q47 33 120 59.5t157 26.5q135 0 210 -69.5t75 -211.5v-461h-209l-6 58q-31 -29 -79 -50.5t-104 -21.5q-102 0 -164.5 57.5 t-62.5 172.5zM266 844q0 -29 17.5 -49.5t54.5 -20.5q31 0 56.5 12.5t47.5 28.5v131q-25 -2 -50 -5t-48 -7q-45 -10 -61.5 -36t-16.5 -54z" />
<glyph unicode="&#xab;" horiz-adv-x="1110" d="M25 510l301 467l272 -178l-190 -273l198 -266l-254 -201zM535 510l311 416l248 -191l-179 -209l185 -198l-230 -213z" />
<glyph unicode="&#xac;" d="M80 535v290h956v-626h-286v336h-670z" />
<glyph unicode="&#xad;" horiz-adv-x="643" d="M53 412v290h537v-290h-537z" />
<glyph unicode="&#xae;" horiz-adv-x="1585" d="M61 608q0 143 46.5 279.5t138.5 244t229 173t320 65.5q180 0 317 -65.5t228.5 -173t137.5 -244t46 -279.5t-46 -281.5t-137.5 -246t-228.5 -173t-319 -65.5t-318.5 65.5t-228.5 173t-138.5 246t-46.5 281.5zM242 608q0 -117 35.5 -225.5t105.5 -192.5t173 -134t239 -50 q135 0 237.5 50t171 134t104 192.5t35.5 225.5q0 115 -34.5 223.5t-104 192.5t-172 134t-237.5 50t-238.5 -50t-173.5 -134t-105.5 -192.5t-35.5 -223.5zM487 209v831h324q174 0 254 -66.5t80 -195.5q0 -102 -47 -161.5t-121 -84.5l182 -323h-211l-164 301h-106v-301h-191z M678 676h119q82 0 115.5 21.5t33.5 80.5q0 49 -31.5 68.5t-109.5 19.5h-127v-190z" />
<glyph unicode="&#xaf;" horiz-adv-x="880" d="M84 1206v209h711v-209h-711z" />
<glyph unicode="&#xb0;" horiz-adv-x="774" d="M51 1049q0 74 26.5 132t73 100t107.5 63.5t129 21.5t129.5 -21.5t107.5 -63.5t72.5 -100t26.5 -132t-26.5 -133.5t-72.5 -100.5t-106.5 -63.5t-130.5 -22.5q-68 0 -129 22.5t-107.5 63.5t-73 100.5t-26.5 133.5zM276 1047q0 -63 35 -95t76 -32t76 32t35 95q0 66 -35 97.5 t-76 31.5t-76 -32t-35 -97z" />
<glyph unicode="&#xb1;" d="M80 0v291h956v-291h-956zM80 684v291h334v358h288v-358h334v-291h-334v-307h-288v307h-334z" />
<glyph unicode="&#xb2;" horiz-adv-x="700" d="M63 1294q45 31 118 58.5t161 27.5q119 0 187.5 -53t68.5 -145q0 -72 -31.5 -117t-85.5 -86l-188 -143h317v-172h-522v137q0 47 10.5 80.5t51.5 64.5l159 123q35 27 46.5 43t11.5 39q0 53 -66 53q-41 0 -78 -18.5t-71 -40.5z" />
<glyph unicode="&#xb3;" horiz-adv-x="700" d="M86 735l72 152q31 -29 76 -49.5t98 -20.5q90 0 90 66q0 41 -33 57t-92 16q-14 0 -30.5 -1t-33.5 -3v133q23 29 53.5 60t65.5 53h-217v170h461v-166q-47 -23 -93 -55.5t-81 -69.5q100 -6 152.5 -60t52.5 -140q0 -57 -21.5 -100.5t-58.5 -72t-86 -43t-103 -14.5 q-104 0 -168.5 26.5t-103.5 61.5z" />
<glyph unicode="&#xb4;" horiz-adv-x="880" d="M174 1249l410 264l121 -225l-451 -186z" />
<glyph unicode="&#xb5;" horiz-adv-x="1234" d="M123 -385v1393h344v-590q0 -74 29.5 -123t103.5 -49q45 0 72.5 17.5t42 46t19.5 64.5t5 72v562h344v-664q0 -72 16.5 -98.5t51.5 -26.5q14 0 33.5 5t40.5 14l18 -228q-35 -14 -80 -22t-84 -8q-86 0 -142 38.5t-79 98.5q-35 -70 -96.5 -103.5t-120.5 -33.5 q-68 0 -117 25.5t-71 55.5v-446h-330z" />
<glyph unicode="&#xb6;" horiz-adv-x="1042" d="M43 938q0 86 30.5 163t85 136t129 94t165.5 35h155v-1663h-207v813q-80 8 -146.5 46t-113.5 94.5t-72.5 129t-25.5 152.5zM702 -297v1663h213v-1663h-213z" />
<glyph unicode="&#xb7;" horiz-adv-x="634" d="M145 713q0 76 49.5 129t131.5 53q80 0 128 -53.5t48 -128.5q0 -74 -48 -128.5t-128 -54.5q-82 0 -131.5 54.5t-49.5 128.5z" />
<glyph unicode="&#xb8;" horiz-adv-x="880" d="M256 -395l113 305h256l-166 -305h-203z" />
<glyph unicode="&#xb9;" horiz-adv-x="700" d="M90 1227l264 143h160v-704h-221v462l-125 -71z" />
<glyph unicode="&#xba;" horiz-adv-x="798" d="M49 983q0 76 22.5 143.5t66.5 119.5t109.5 83t151.5 31t151.5 -31t110 -83t67 -119.5t22.5 -143.5q0 -74 -22.5 -142.5t-67 -120.5t-110 -84t-151.5 -32q-88 0 -153.5 32t-109.5 84t-65.5 120.5t-21.5 142.5zM289 983q0 -82 28.5 -128t81.5 -46t82 46t29 128 q0 84 -28.5 131t-82.5 47q-53 0 -81.5 -47t-28.5 -131z" />
<glyph unicode="&#xbb;" horiz-adv-x="1110" d="M10 709l232 213l331 -396l-309 -415l-246 190l177 209zM504 776l256 201l323 -451l-297 -467l-272 179l191 272z" />
<glyph unicode="&#xbc;" horiz-adv-x="1667" d="M31 1227l264 143h160v-704h-221v462l-125 -71zM118 143l1297 1252l160 -166l-1299 -1258zM969 139v164l358 402h201v-406h82v-160h-82v-139h-217v139h-342zM1155 299h156v182z" />
<glyph unicode="&#xbd;" horiz-adv-x="1667" d="M57 1227l264 143h160v-704h-221v462l-125 -71zM67 143l1297 1252l160 -166l-1299 -1258zM1042 639q45 31 118 58.5t161 27.5q119 0 187.5 -53t68.5 -145q0 -72 -31.5 -117t-85.5 -86l-188 -143h317v-172h-522v137q0 47 10.5 80.5t51.5 64.5l159 123q35 27 46.5 43 t11.5 39q0 53 -66 53q-41 0 -78 -18.5t-71 -40.5z" />
<glyph unicode="&#xbe;" horiz-adv-x="1667" d="M109 735l72 152q31 -29 76 -49.5t98 -20.5q90 0 90 66q0 41 -33 57t-92 16q-14 0 -30.5 -1t-33.5 -3v133q23 29 53.5 60t65.5 53h-217v170h461v-166q-47 -23 -93 -55.5t-81 -69.5q100 -6 152.5 -60t52.5 -140q0 -57 -21.5 -100.5t-58.5 -72t-86 -43t-103 -14.5 q-104 0 -168.5 26.5t-103.5 61.5zM163 143l1297 1252l160 -166l-1299 -1258zM949 139v164l358 402h201v-406h82v-160h-82v-139h-217v139h-342zM1135 299h156v182z" />
<glyph unicode="&#xbf;" horiz-adv-x="792" d="M-14 -33q0 111 49 183.5t119 132.5q76 66 101.5 110.5t25.5 106.5v30h325v-79q0 -86 -29.5 -146.5t-89.5 -114.5q-72 -66 -115.5 -112.5t-43.5 -102.5q0 -47 32.5 -74.5t85.5 -27.5q51 0 111.5 34t126.5 107l201 -202q-29 -35 -72 -73t-100.5 -71t-131 -54.5 t-165.5 -21.5q-205 0 -317.5 102.5t-112.5 272.5zM248 825q0 82 54 132.5t138 50.5q82 0 136.5 -50.5t54.5 -132.5q0 -80 -54.5 -131t-136.5 -51q-84 0 -138 51t-54 131z" />
<glyph unicode="&#xc0;" horiz-adv-x="1308" d="M-12 0l495 1368h346l492 -1368h-367l-84 233h-434l-84 -233h-364zM383 1628l123 225l408 -264l-80 -147zM516 516h275l-138 461z" />
<glyph unicode="&#xc1;" horiz-adv-x="1308" d="M-12 0l495 1368h346l492 -1368h-367l-84 233h-434l-84 -233h-364zM420 1589l410 264l121 -225l-451 -186zM516 516h275l-138 461z" />
<glyph unicode="&#xc2;" horiz-adv-x="1308" d="M-12 0l495 1368h346l492 -1368h-367l-84 233h-434l-84 -233h-364zM319 1577l242 250h193l237 -250l-145 -133l-191 194l-202 -194zM516 516h275l-138 461z" />
<glyph unicode="&#xc3;" horiz-adv-x="1308" d="M-12 0l495 1368h346l492 -1368h-367l-84 233h-434l-84 -233h-364zM262 1559q33 117 98.5 178t151.5 61q49 0 127 -37q80 -37 125 -37q47 0 70.5 25t35.5 66l181 -62q-20 -113 -79 -182.5t-169 -69.5q-63 0 -144 39q-80 39 -120 39q-70 0 -105 -96zM516 516h275l-138 461z " />
<glyph unicode="&#xc4;" horiz-adv-x="1308" d="M-12 0l495 1368h346l492 -1368h-367l-84 233h-434l-84 -233h-364zM277 1643q0 66 43 107.5t110 41.5q66 0 110 -42t44 -107q0 -63 -44 -105.5t-110 -42.5q-68 0 -110.5 42t-42.5 106zM516 516h275l-138 461zM711 1643q0 66 43 107.5t110 41.5q66 0 110 -42t44 -107 q0 -63 -44 -105.5t-110 -42.5q-68 0 -110.5 42t-42.5 106z" />
<glyph unicode="&#xc5;" horiz-adv-x="1308" d="M-12 0l495 1368h346l492 -1368h-367l-84 233h-434l-84 -233h-364zM403 1694q0 113 63.5 188.5t188.5 75.5q123 0 186.5 -75.5t63.5 -188.5q2 -66 -19.5 -115t-58.5 -83t-82 -50t-90 -12q-70 0 -119 25.5t-79.5 64.5t-44 85t-9.5 85zM516 516h275l-138 461zM551 1696 q0 -45 27.5 -83t76.5 -38q47 0 75 38t28 83q0 47 -28 85t-75 38q-49 0 -76.5 -38t-27.5 -85z" />
<glyph unicode="&#xc6;" horiz-adv-x="1902" d="M-12 0l760 1368h1062v-319h-573v-218h469v-292h-469v-220h614v-319h-962v268h-365l-145 -268h-391zM645 551h244v461z" />
<glyph unicode="&#xc7;" horiz-adv-x="1216" d="M72 680q0 176 47 310t130 223.5t196.5 134.5t246.5 45q96 0 172 -23.5t135.5 -62.5t105.5 -90.5t81 -106.5l-234 -190q-53 88 -114.5 126.5t-147.5 38.5q-123 0 -190.5 -102t-67.5 -303q0 -195 80 -300.5t227 -105.5q109 0 184.5 43t135.5 95l108 -285 q-66 -57 -184.5 -106.5t-277.5 -49.5q-154 0 -272 49.5t-197.5 141.5t-121.5 223t-42 295zM455 -395l113 305h256l-166 -305h-203z" />
<glyph unicode="&#xc8;" horiz-adv-x="1150" d="M135 0v1368h924v-317h-574v-222h469v-292h-469v-220h615v-317h-965zM328 1628l123 225l408 -264l-80 -147z" />
<glyph unicode="&#xc9;" horiz-adv-x="1150" d="M135 0v1368h924v-317h-574v-222h469v-292h-469v-220h615v-317h-965zM356 1589l410 264l121 -225l-451 -186z" />
<glyph unicode="&#xca;" horiz-adv-x="1150" d="M135 0v1368h924v-317h-574v-222h469v-292h-469v-220h615v-317h-965zM270 1577l242 250h193l237 -250l-145 -133l-191 194l-202 -194z" />
<glyph unicode="&#xcb;" horiz-adv-x="1150" d="M135 0v1368h924v-317h-574v-222h469v-292h-469v-220h615v-317h-965zM234 1643q0 66 43 107.5t110 41.5q66 0 110 -42t44 -107q0 -63 -44 -105.5t-110 -42.5q-68 0 -110.5 42t-42.5 106zM668 1643q0 66 43 107.5t110 41.5q66 0 110 -42t44 -107q0 -63 -44 -105.5 t-110 -42.5q-68 0 -110.5 42t-42.5 106z" />
<glyph unicode="&#xcc;" horiz-adv-x="618" d="M55 1622l123 225l408 -264l-80 -147zM135 0v1368h350v-1368h-350z" />
<glyph unicode="&#xcd;" horiz-adv-x="618" d="M68 1589l410 264l121 -225l-451 -186zM135 0v1368h350v-1368h-350z" />
<glyph unicode="&#xce;" horiz-adv-x="618" d="M-23 1577l242 250h193l237 -250l-145 -133l-191 194l-202 -194zM135 0v1368h350v-1368h-350z" />
<glyph unicode="&#xcf;" horiz-adv-x="618" d="M-59 1643q0 66 43 107.5t110 41.5q66 0 110 -42t44 -107q0 -63 -44 -105.5t-110 -42.5q-68 0 -110.5 42t-42.5 106zM135 0v1368h350v-1368h-350zM375 1643q0 66 43 107.5t110 41.5q66 0 110 -42t44 -107q0 -63 -44 -105.5t-110 -42.5q-68 0 -110.5 42t-42.5 106z" />
<glyph unicode="&#xd0;" horiz-adv-x="1312" d="M-29 565v244h164v559h445q88 0 175 -16.5t160 -51.5q84 -39 147.5 -101t106.5 -142t64.5 -173.5t21.5 -195.5q0 -205 -87 -370.5t-257 -247.5q-70 -33 -151.5 -51.5t-173.5 -18.5h-451v565h-164zM485 315h88q113 0 187 52q68 47 103.5 129t35.5 186t-32.5 185t-94.5 128 q-39 29 -90 43.5t-107 14.5h-90v-244h215v-244h-215v-250z" />
<glyph unicode="&#xd1;" horiz-adv-x="1384" d="M135 0v1368h352l422 -721v721h342v-1368h-317l-457 770v-770h-342zM307 1559q33 117 98.5 178t151.5 61q49 0 127 -37q80 -37 125 -37q47 0 70.5 25t35.5 66l181 -62q-20 -113 -79 -182.5t-169 -69.5q-63 0 -144 39q-80 39 -120 39q-70 0 -105 -96z" />
<glyph unicode="&#xd2;" horiz-adv-x="1380" d="M72 684q0 145 39 274t116.5 225.5t193.5 153t267 56.5q154 0 269.5 -56.5t193.5 -153t117 -225.5t39 -274t-39 -275t-117 -227.5t-193.5 -154t-269.5 -56.5q-152 0 -267.5 56.5t-193 154t-116.5 227.5t-39 275zM432 684q0 -86 16.5 -160.5t48 -128t80 -84t111.5 -30.5 t112.5 30.5t81 84t48 128t16.5 160.5t-16.5 160t-48 127t-80.5 83.5t-113 30.5q-63 0 -111.5 -30.5t-80 -83.5t-48 -127t-16.5 -160zM434 1628l123 225l408 -264l-80 -147z" />
<glyph unicode="&#xd3;" horiz-adv-x="1380" d="M72 684q0 145 39 274t116.5 225.5t193.5 153t267 56.5q154 0 269.5 -56.5t193.5 -153t117 -225.5t39 -274t-39 -275t-117 -227.5t-193.5 -154t-269.5 -56.5q-152 0 -267.5 56.5t-193 154t-116.5 227.5t-39 275zM432 684q0 -86 16.5 -160.5t48 -128t80 -84t111.5 -30.5 t112.5 30.5t81 84t48 128t16.5 160.5t-16.5 160t-48 127t-80.5 83.5t-113 30.5q-63 0 -111.5 -30.5t-80 -83.5t-48 -127t-16.5 -160zM448 1589l410 264l121 -225l-451 -186z" />
<glyph unicode="&#xd4;" horiz-adv-x="1380" d="M72 684q0 145 39 274t116.5 225.5t193.5 153t267 56.5q154 0 269.5 -56.5t193.5 -153t117 -225.5t39 -274t-39 -275t-117 -227.5t-193.5 -154t-269.5 -56.5q-152 0 -267.5 56.5t-193 154t-116.5 227.5t-39 275zM360 1577l242 250h193l237 -250l-145 -133l-191 194 l-202 -194zM432 684q0 -86 16.5 -160.5t48 -128t80 -84t111.5 -30.5t112.5 30.5t81 84t48 128t16.5 160.5t-16.5 160t-48 127t-80.5 83.5t-113 30.5q-63 0 -111.5 -30.5t-80 -83.5t-48 -127t-16.5 -160z" />
<glyph unicode="&#xd5;" horiz-adv-x="1380" d="M72 684q0 145 39 274t116.5 225.5t193.5 153t267 56.5q154 0 269.5 -56.5t193.5 -153t117 -225.5t39 -274t-39 -275t-117 -227.5t-193.5 -154t-269.5 -56.5q-152 0 -267.5 56.5t-193 154t-116.5 227.5t-39 275zM326 1559q33 117 98.5 178t151.5 61q49 0 127 -37 q80 -37 125 -37q47 0 70.5 25t35.5 66l181 -62q-20 -113 -79 -182.5t-169 -69.5q-63 0 -144 39q-80 39 -120 39q-70 0 -105 -96zM432 684q0 -86 16.5 -160.5t48 -128t80 -84t111.5 -30.5t112.5 30.5t81 84t48 128t16.5 160.5t-16.5 160t-48 127t-80.5 83.5t-113 30.5 q-63 0 -111.5 -30.5t-80 -83.5t-48 -127t-16.5 -160z" />
<glyph unicode="&#xd6;" horiz-adv-x="1380" d="M72 684q0 145 39 274t116.5 225.5t193.5 153t267 56.5q154 0 269.5 -56.5t193.5 -153t117 -225.5t39 -274t-39 -275t-117 -227.5t-193.5 -154t-269.5 -56.5q-152 0 -267.5 56.5t-193 154t-116.5 227.5t-39 275zM324 1643q0 66 43 107.5t110 41.5q66 0 110 -42t44 -107 q0 -63 -44 -105.5t-110 -42.5q-68 0 -110.5 42t-42.5 106zM432 684q0 -86 16.5 -160.5t48 -128t80 -84t111.5 -30.5t112.5 30.5t81 84t48 128t16.5 160.5t-16.5 160t-48 127t-80.5 83.5t-113 30.5q-63 0 -111.5 -30.5t-80 -83.5t-48 -127t-16.5 -160zM758 1643 q0 66 43 107.5t110 41.5q66 0 110 -42t44 -107q0 -63 -44 -105.5t-110 -42.5q-68 0 -110.5 42t-42.5 106z" />
<glyph unicode="&#xd7;" d="M106 418l252 264l-252 264l201 211l252 -264l250 264l201 -211l-250 -264l250 -264l-201 -211l-250 264l-252 -264z" />
<glyph unicode="&#xd8;" horiz-adv-x="1380" d="M61 84l127 154q-59 92 -87.5 205.5t-28.5 240.5q0 145 39 274t116.5 225.5t193.5 153t267 56.5q111 0 201 -29t162 -82l110 135l164 -145l-127 -156q53 -90 81 -199.5t28 -232.5q0 -145 -39 -275t-117 -227.5t-193.5 -154t-269.5 -56.5q-104 0 -191 28t-159 77l-113 -137 zM428 684q0 -86 16.5 -160.5t49 -128t82 -84t112.5 -30.5t112.5 30.5t83.5 84t50 128t16 160.5t-16 160t-50 127t-83 83.5t-113 30.5q-63 0 -112.5 -30.5t-82 -83.5t-49 -127t-16.5 -160z" />
<glyph unicode="&#xd9;" horiz-adv-x="1361" d="M121 492v876h350v-854q0 -111 55.5 -170t155.5 -59t154.5 59t54.5 170v854h350v-876q0 -123 -40 -219.5t-113.5 -163t-177 -102.5t-228.5 -36q-127 0 -230.5 36t-177 102.5t-113.5 163t-40 219.5zM434 1628l123 225l408 -264l-80 -147z" />
<glyph unicode="&#xda;" horiz-adv-x="1361" d="M121 492v876h350v-854q0 -111 55.5 -170t155.5 -59t154.5 59t54.5 170v854h350v-876q0 -123 -40 -219.5t-113.5 -163t-177 -102.5t-228.5 -36q-127 0 -230.5 36t-177 102.5t-113.5 163t-40 219.5zM489 1589l410 264l121 -225l-451 -186z" />
<glyph unicode="&#xdb;" horiz-adv-x="1361" d="M121 492v876h350v-854q0 -111 55.5 -170t155.5 -59t154.5 59t54.5 170v854h350v-876q0 -123 -40 -219.5t-113.5 -163t-177 -102.5t-228.5 -36q-127 0 -230.5 36t-177 102.5t-113.5 163t-40 219.5zM360 1577l242 250h193l237 -250l-145 -133l-191 194l-202 -194z" />
<glyph unicode="&#xdc;" horiz-adv-x="1361" d="M121 492v876h350v-854q0 -111 55.5 -170t155.5 -59t154.5 59t54.5 170v854h350v-876q0 -123 -40 -219.5t-113.5 -163t-177 -102.5t-228.5 -36q-127 0 -230.5 36t-177 102.5t-113.5 163t-40 219.5zM312 1633q0 66 43 107.5t110 41.5q66 0 110 -42t44 -107 q0 -63 -44 -105.5t-110 -42.5q-68 0 -110.5 42t-42.5 106zM746 1633q0 66 43 107.5t110 41.5q66 0 110 -42t44 -107q0 -63 -44 -105.5t-110 -42.5q-68 0 -110.5 42t-42.5 106z" />
<glyph unicode="&#xdd;" horiz-adv-x="1245" d="M-12 1368h397l246 -481l233 481h393l-456 -836v-532h-350v532zM440 1589l410 264l121 -225l-451 -186z" />
<glyph unicode="&#xde;" horiz-adv-x="1165" d="M135 0v1368h344v-211h142q207 0 344 -84q92 -55 138 -150.5t46 -217.5q0 -137 -58.5 -248t-175.5 -164q-61 -29 -131.5 -42t-148.5 -13h-156v-238h-344zM479 537h131q80 0 127 30q35 23 49.5 56.5t14.5 72.5q0 43 -17.5 79t-52.5 54q-47 25 -117 25h-135v-317z" />
<glyph unicode="&#xdf;" horiz-adv-x="1284" d="M16 758v250h131v8q0 92 37 161.5t105.5 117.5t166 73t216.5 25q238 0 371 -109.5t133 -318.5v-195h-187q-76 0 -76 -70q0 -31 24 -54t91 -56q59 -29 101 -58.5t68 -64.5t38 -79t12 -99q0 -66 -24.5 -123t-69.5 -98t-109.5 -64.5t-144.5 -23.5q-119 0 -198.5 33.5 t-118.5 60.5l102 223q37 -29 90 -52.5t90 -23.5q29 0 50.5 11.5t21.5 46.5q0 16 -6 28t-22.5 24.5t-46.5 29t-79 40.5q-92 47 -139 115t-47 178q0 63 23.5 114.5t61.5 88.5t85 58.5t94 27.5q0 92 -49 126t-137 34q-104 0 -145.5 -49.5t-41.5 -114.5v-979h-340v758h-131z" />
<glyph unicode="&#xe0;" horiz-adv-x="1036" d="M51 287q0 74 26.5 129t72 94t105.5 63.5t126 34.5q61 10 115.5 14.5t99.5 6.5v35q0 113 -125 112q-59 0 -118.5 -19.5t-114.5 -51.5l-99 217q25 16 66 34.5t92 35t109.5 27.5t117.5 11q186 0 297 -96t111 -297v-637h-287l-27 78q-41 -39 -106.5 -66.5t-153.5 -27.5 q-66 0 -122 20.5t-97 60t-64.5 95t-23.5 127.5zM260 1288l123 225l408 -264l-80 -147zM369 313q0 -39 27.5 -64.5t78.5 -25.5q35 0 66.5 12.5t54.5 30.5v185q-29 -2 -58.5 -5.5t-60.5 -9.5q-59 -12 -83.5 -44t-24.5 -79z" />
<glyph unicode="&#xe1;" horiz-adv-x="1036" d="M51 287q0 74 26.5 129t72 94t105.5 63.5t126 34.5q61 10 115.5 14.5t99.5 6.5v35q0 113 -125 112q-59 0 -118.5 -19.5t-114.5 -51.5l-99 217q25 16 66 34.5t92 35t109.5 27.5t117.5 11q186 0 297 -96t111 -297v-637h-287l-27 78q-41 -39 -106.5 -66.5t-153.5 -27.5 q-66 0 -122 20.5t-97 60t-64.5 95t-23.5 127.5zM299 1249l410 264l121 -225l-451 -186zM369 313q0 -39 27.5 -64.5t78.5 -25.5q35 0 66.5 12.5t54.5 30.5v185q-29 -2 -58.5 -5.5t-60.5 -9.5q-59 -12 -83.5 -44t-24.5 -79z" />
<glyph unicode="&#xe2;" horiz-adv-x="1036" d="M51 287q0 74 26.5 129t72 94t105.5 63.5t126 34.5q61 10 115.5 14.5t99.5 6.5v35q0 113 -125 112q-59 0 -118.5 -19.5t-114.5 -51.5l-99 217q25 16 66 34.5t92 35t109.5 27.5t117.5 11q186 0 297 -96t111 -297v-637h-287l-27 78q-41 -39 -106.5 -66.5t-153.5 -27.5 q-66 0 -122 20.5t-97 60t-64.5 95t-23.5 127.5zM194 1237l242 250h193l237 -250l-145 -133l-191 194l-202 -194zM369 313q0 -39 27.5 -64.5t78.5 -25.5q35 0 66.5 12.5t54.5 30.5v185q-29 -2 -58.5 -5.5t-60.5 -9.5q-59 -12 -83.5 -44t-24.5 -79z" />
<glyph unicode="&#xe3;" horiz-adv-x="1036" d="M51 287q0 74 26.5 129t72 94t105.5 63.5t126 34.5q61 10 115.5 14.5t99.5 6.5v35q0 113 -125 112q-59 0 -118.5 -19.5t-114.5 -51.5l-99 217q25 16 66 34.5t92 35t109.5 27.5t117.5 11q186 0 297 -96t111 -297v-637h-287l-27 78q-41 -39 -106.5 -66.5t-153.5 -27.5 q-66 0 -122 20.5t-97 60t-64.5 95t-23.5 127.5zM129 1219q33 117 98.5 178t151.5 61q49 0 127 -37q80 -37 125 -37q47 0 70.5 25t35.5 66l181 -62q-20 -113 -79 -182.5t-169 -69.5q-63 0 -144 39q-80 39 -120 39q-70 0 -105 -96zM369 313q0 -39 27.5 -64.5t78.5 -25.5 q35 0 66.5 12.5t54.5 30.5v185q-29 -2 -58.5 -5.5t-60.5 -9.5q-59 -12 -83.5 -44t-24.5 -79z" />
<glyph unicode="&#xe4;" horiz-adv-x="1036" d="M51 287q0 74 26.5 129t72 94t105.5 63.5t126 34.5q61 10 115.5 14.5t99.5 6.5v35q0 113 -125 112q-59 0 -118.5 -19.5t-114.5 -51.5l-99 217q25 16 66 34.5t92 35t109.5 27.5t117.5 11q186 0 297 -96t111 -297v-637h-287l-27 78q-41 -39 -106.5 -66.5t-153.5 -27.5 q-66 0 -122 20.5t-97 60t-64.5 95t-23.5 127.5zM164 1303q0 66 43 107.5t110 41.5q66 0 110 -42t44 -107q0 -63 -44 -105.5t-110 -42.5q-68 0 -110.5 42t-42.5 106zM369 313q0 -39 27.5 -64.5t78.5 -25.5q35 0 66.5 12.5t54.5 30.5v185q-29 -2 -58.5 -5.5t-60.5 -9.5 q-59 -12 -83.5 -44t-24.5 -79zM598 1303q0 66 43 107.5t110 41.5q66 0 110 -42t44 -107q0 -63 -44 -105.5t-110 -42.5q-68 0 -110.5 42t-42.5 106z" />
<glyph unicode="&#xe5;" horiz-adv-x="1036" d="M51 287q0 74 26.5 129t72 94t105.5 63.5t126 34.5q61 10 115.5 14.5t99.5 6.5v35q0 113 -125 112q-59 0 -118.5 -19.5t-114.5 -51.5l-99 217q25 16 66 34.5t92 35t109.5 27.5t117.5 11q186 0 297 -96t111 -297v-637h-287l-27 78q-41 -39 -106.5 -66.5t-153.5 -27.5 q-66 0 -122 20.5t-97 60t-64.5 95t-23.5 127.5zM297 1360q0 113 63.5 188.5t188.5 75.5q123 0 186.5 -75.5t63.5 -188.5q2 -66 -19.5 -115t-58.5 -83t-82 -50t-90 -12q-70 0 -119 25.5t-79.5 64.5t-44 85t-9.5 85zM369 313q0 -39 27.5 -64.5t78.5 -25.5q35 0 66.5 12.5 t54.5 30.5v185q-29 -2 -58.5 -5.5t-60.5 -9.5q-59 -12 -83.5 -44t-24.5 -79zM445 1362q0 -45 27.5 -83t76.5 -38q47 0 75 38t28 83q0 47 -28 85t-75 38q-49 0 -76.5 -38t-27.5 -85z" />
<glyph unicode="&#xe6;" horiz-adv-x="1613" d="M51 285q0 74 23.5 129t65.5 93t100.5 61.5t128.5 35.5q57 10 126.5 15.5t122.5 7.5v41q0 57 -37.5 83.5t-101.5 26.5q-59 0 -123.5 -22.5t-117.5 -50.5l-99 219q25 14 65 33.5t89 35t102.5 26.5t106.5 11q104 0 181 -27.5t134 -93.5q51 53 120 87t179 34q98 0 179 -37 t139.5 -111.5t91.5 -186t33 -261.5h-617q4 -92 58.5 -141t158.5 -49q86 0 143.5 31.5t112.5 78.5l101 -241q-25 -23 -61 -45.5t-82 -43t-101 -32.5t-119 -12q-139 0 -231.5 40.5t-155.5 106.5q-29 -27 -65.5 -53.5t-82 -47t-98.5 -33.5t-117 -13q-78 0 -142 20t-110.5 59 t-73 95.5t-26.5 130.5zM375 313q0 -41 26.5 -67.5t73.5 -26.5q61 0 102 30t41 70v125q-33 -2 -83 -6t-80 -14q-80 -25 -80 -111zM944 625h295q-4 78 -44 127t-99 49q-63 0 -104.5 -47t-47.5 -129z" />
<glyph unicode="&#xe7;" horiz-adv-x="1013" d="M66 500q0 127 36.5 225t102 165.5t158 103.5t200.5 36q88 0 154.5 -22.5t116 -59.5t83 -84t56.5 -96l-236 -152q-33 68 -71.5 107t-94.5 39q-78 0 -123 -61.5t-45 -186.5q0 -133 53.5 -197.5t151.5 -64.5q78 0 130.5 28.5t99.5 73.5l108 -254q-49 -41 -145 -80.5 t-234 -39.5q-231 0 -366 134t-135 386zM322 -395l113 305h256l-166 -305h-203z" />
<glyph unicode="&#xe8;" horiz-adv-x="1071" d="M66 504q0 125 36.5 223t102 166t155 102.5t191.5 34.5q213 0 338 -147.5t127 -448.5h-617q4 -92 58.5 -141t158.5 -49q86 0 143.5 31.5t112.5 78.5l101 -241q-25 -23 -62 -45.5t-86 -43t-113.5 -32.5t-144.5 -12q-109 0 -200 31.5t-158.5 97t-105 164t-37.5 231.5z M301 1288l123 225l408 -264l-80 -147zM401 625h295q-4 78 -44 127t-99 49q-63 0 -104 -47t-48 -129z" />
<glyph unicode="&#xe9;" horiz-adv-x="1071" d="M66 504q0 125 36.5 223t102 166t155 102.5t191.5 34.5q213 0 338 -147.5t127 -448.5h-617q4 -92 58.5 -141t158.5 -49q86 0 143.5 31.5t112.5 78.5l101 -241q-25 -23 -62 -45.5t-86 -43t-113.5 -32.5t-144.5 -12q-109 0 -200 31.5t-158.5 97t-105 164t-37.5 231.5z M313 1249l410 264l121 -225l-451 -186zM401 625h295q-4 78 -44 127t-99 49q-63 0 -104 -47t-48 -129z" />
<glyph unicode="&#xea;" horiz-adv-x="1071" d="M66 504q0 125 36.5 223t102 166t155 102.5t191.5 34.5q213 0 338 -147.5t127 -448.5h-617q4 -92 58.5 -141t158.5 -49q86 0 143.5 31.5t112.5 78.5l101 -241q-25 -23 -62 -45.5t-86 -43t-113.5 -32.5t-144.5 -12q-109 0 -200 31.5t-158.5 97t-105 164t-37.5 231.5z M223 1237l242 250h193l237 -250l-145 -133l-191 194l-202 -194zM401 625h295q-4 78 -44 127t-99 49q-63 0 -104 -47t-48 -129z" />
<glyph unicode="&#xeb;" horiz-adv-x="1071" d="M66 504q0 125 36.5 223t102 166t155 102.5t191.5 34.5q213 0 338 -147.5t127 -448.5h-617q4 -92 58.5 -141t158.5 -49q86 0 143.5 31.5t112.5 78.5l101 -241q-25 -23 -62 -45.5t-86 -43t-113.5 -32.5t-144.5 -12q-109 0 -200 31.5t-158.5 97t-105 164t-37.5 231.5z M189 1303q0 66 43 107.5t110 41.5q66 0 110 -42t44 -107q0 -63 -44 -105.5t-110 -42.5q-68 0 -110.5 42t-42.5 106zM401 625h295q-4 78 -44 127t-99 49q-63 0 -104 -47t-48 -129zM623 1303q0 66 43 107.5t110 41.5q66 0 110 -42t44 -107q0 -63 -44 -105.5t-110 -42.5 q-68 0 -110.5 42t-42.5 106z" />
<glyph unicode="&#xec;" horiz-adv-x="571" d="M24 1288l123 225l408 -264l-80 -147zM115 0v1008h340v-1008h-340z" />
<glyph unicode="&#xed;" horiz-adv-x="571" d="M24 1249l410 264l121 -225l-451 -186zM115 0v1008h340v-1008h-340z" />
<glyph unicode="&#xee;" horiz-adv-x="571" d="M-46 1237l242 250h193l237 -250l-145 -133l-191 194l-202 -194zM115 0v1008h340v-1008h-340z" />
<glyph unicode="&#xef;" horiz-adv-x="571" d="M-82 1303q0 66 43 107.5t110 41.5q66 0 110 -42t44 -107q0 -63 -44 -105.5t-110 -42.5q-68 0 -110.5 42t-42.5 106zM115 0v1008h340v-1008h-340zM352 1303q0 66 43 107.5t110 41.5q66 0 110 -42t44 -107q0 -63 -44 -105.5t-110 -42.5q-68 0 -110.5 42t-42.5 106z" />
<glyph unicode="&#xf0;" horiz-adv-x="1118" d="M59 500q0 117 31 212t86 162.5t134 104.5t177 37q31 0 68 -7.5t72 -21.5q-8 29 -35 72t-64 82l-202 -90l-103 118l189 86q-27 23 -53.5 38.5t-45.5 25.5l248 115q23 -14 51.5 -31t51.5 -35l194 88l103 -123l-179 -80q55 -61 105.5 -139t88.5 -168t60.5 -190.5 t22.5 -206.5q0 -129 -34 -234.5t-98.5 -179.5t-155.5 -114.5t-208 -40.5q-102 0 -193 30.5t-160 95t-110 162t-41 232.5zM397 506q0 -143 46 -203.5t112 -60.5q80 0 123 65.5t43 204.5q0 53 -8 111.5t-19 97.5q-61 31 -129 31q-74 0 -121 -65.5t-47 -180.5z" />
<glyph unicode="&#xf1;" horiz-adv-x="1169" d="M109 0v1008h301l14 -86q47 43 119.5 75.5t163.5 32.5q160 0 259 -96t99 -297v-637h-344v598q0 80 -32 123t-93 43q-45 0 -81 -20.5t-64 -45.5v-698h-342zM233 1219q33 117 98.5 178t151.5 61q49 0 127 -37q80 -37 125 -37q47 0 70.5 25t35.5 66l181 -62 q-20 -113 -79 -182.5t-169 -69.5q-63 0 -144 39q-80 39 -120 39q-70 0 -105 -96z" />
<glyph unicode="&#xf2;" horiz-adv-x="1128" d="M61 510q0 113 34 209t98.5 164.5t156.5 107.5t211 39t212 -39t157.5 -108.5t98.5 -164.5t34 -208q0 -115 -34 -212t-98.5 -168t-157.5 -110.5t-212 -39.5t-211 39.5t-156.5 110.5t-98.5 168t-34 212zM311 1288l123 225l408 -264l-80 -147zM399 510q0 -121 40 -194.5 t122 -73.5q84 0 124 73.5t40 194.5q0 117 -41 186.5t-123 69.5q-80 0 -121 -69.5t-41 -186.5z" />
<glyph unicode="&#xf3;" horiz-adv-x="1128" d="M61 510q0 113 34 209t98.5 164.5t156.5 107.5t211 39t212 -39t157.5 -108.5t98.5 -164.5t34 -208q0 -115 -34 -212t-98.5 -168t-157.5 -110.5t-212 -39.5t-211 39.5t-156.5 110.5t-98.5 168t-34 212zM344 1249l410 264l121 -225l-451 -186zM399 510q0 -121 40 -194.5 t122 -73.5q84 0 124 73.5t40 194.5q0 117 -41 186.5t-123 69.5q-80 0 -121 -69.5t-41 -186.5z" />
<glyph unicode="&#xf4;" horiz-adv-x="1128" d="M61 510q0 113 34 209t98.5 164.5t156.5 107.5t211 39t212 -39t157.5 -108.5t98.5 -164.5t34 -208q0 -115 -34 -212t-98.5 -168t-157.5 -110.5t-212 -39.5t-211 39.5t-156.5 110.5t-98.5 168t-34 212zM239 1237l242 250h193l237 -250l-145 -133l-191 194l-202 -194z M399 510q0 -121 40 -194.5t122 -73.5q84 0 124 73.5t40 194.5q0 117 -41 186.5t-123 69.5q-80 0 -121 -69.5t-41 -186.5z" />
<glyph unicode="&#xf5;" horiz-adv-x="1128" d="M61 510q0 113 34 209t98.5 164.5t156.5 107.5t211 39t212 -39t157.5 -108.5t98.5 -164.5t34 -208q0 -115 -34 -212t-98.5 -168t-157.5 -110.5t-212 -39.5t-211 39.5t-156.5 110.5t-98.5 168t-34 212zM199 1219q33 117 98.5 178t151.5 61q49 0 127 -37q80 -37 125 -37 q47 0 70.5 25t35.5 66l181 -62q-20 -113 -79 -182.5t-169 -69.5q-63 0 -144 39q-80 39 -120 39q-70 0 -105 -96zM399 510q0 -121 40 -194.5t122 -73.5q84 0 124 73.5t40 194.5q0 117 -41 186.5t-123 69.5q-80 0 -121 -69.5t-41 -186.5z" />
<glyph unicode="&#xf6;" horiz-adv-x="1128" d="M61 510q0 113 34 209t98.5 164.5t156.5 107.5t211 39t212 -39t157.5 -108.5t98.5 -164.5t34 -208q0 -115 -34 -212t-98.5 -168t-157.5 -110.5t-212 -39.5t-211 39.5t-156.5 110.5t-98.5 168t-34 212zM209 1303q0 66 43 107.5t110 41.5q66 0 110 -42t44 -107 q0 -63 -44 -105.5t-110 -42.5q-68 0 -110.5 42t-42.5 106zM399 510q0 -121 40 -194.5t122 -73.5q84 0 124 73.5t40 194.5q0 117 -41 186.5t-123 69.5q-80 0 -121 -69.5t-41 -186.5zM643 1303q0 66 43 107.5t110 41.5q66 0 110 -42t44 -107q0 -63 -44 -105.5t-110 -42.5 q-68 0 -110.5 42t-42.5 106z" />
<glyph unicode="&#xf7;" d="M80 535v290h956v-290h-956zM393 250q0 72 46 123t124 51q76 0 121 -51t45 -123t-44 -122t-122 -50t-124 50t-46 122zM393 1114q0 72 46 123t124 51q76 0 121 -51t45 -123t-44 -122t-122 -50t-124 50t-46 122z" />
<glyph unicode="&#xf8;" horiz-adv-x="1128" d="M63 502q0 111 34 204t98.5 162.5t156.5 108.5t211 39q135 0 238 -51l100 116l156 -133l-99 -112q105 -135 105 -334q0 -111 -34 -206t-97.5 -166t-156.5 -110.5t-212 -39.5q-141 0 -246 57l-100 -115l-151 133l98 115q-100 137 -101 332zM401 502q0 -113 40 -186.5 t122 -73.5q80 0 121 73.5t41 186.5q0 111 -41 180.5t-121 69.5t-121 -70t-41 -180z" />
<glyph unicode="&#xf9;" horiz-adv-x="1167" d="M104 369v639h345v-596q0 -78 27.5 -121t90.5 -43q51 0 87 19.5t61 39.5v701h344v-1008h-299l-19 84q-49 -47 -120.5 -77t-157.5 -30q-168 0 -263.5 99.5t-95.5 292.5zM334 1288l123 225l408 -264l-80 -147z" />
<glyph unicode="&#xfa;" horiz-adv-x="1167" d="M104 369v639h345v-596q0 -78 27.5 -121t90.5 -43q51 0 87 19.5t61 39.5v701h344v-1008h-299l-19 84q-49 -47 -120.5 -77t-157.5 -30q-168 0 -263.5 99.5t-95.5 292.5zM373 1249l410 264l121 -225l-451 -186z" />
<glyph unicode="&#xfb;" horiz-adv-x="1167" d="M104 369v639h345v-596q0 -78 27.5 -121t90.5 -43q51 0 87 19.5t61 39.5v701h344v-1008h-299l-19 84q-49 -47 -120.5 -77t-157.5 -30q-168 0 -263.5 99.5t-95.5 292.5zM251 1237l242 250h193l237 -250l-145 -133l-191 194l-202 -194z" />
<glyph unicode="&#xfc;" horiz-adv-x="1167" d="M104 369v639h345v-596q0 -78 27.5 -121t90.5 -43q51 0 87 19.5t61 39.5v701h344v-1008h-299l-19 84q-49 -47 -120.5 -77t-157.5 -30q-168 0 -263.5 99.5t-95.5 292.5zM228 1303q0 66 43 107.5t110 41.5q66 0 110 -42t44 -107q0 -63 -44 -105.5t-110 -42.5 q-68 0 -110.5 42t-42.5 106zM662 1303q0 66 43 107.5t110 41.5q66 0 110 -42t44 -107q0 -63 -44 -105.5t-110 -42.5q-68 0 -110.5 42t-42.5 106z" />
<glyph unicode="&#xfd;" horiz-adv-x="1134" d="M-12 1008h377l208 -729q31 74 61 163.5t56.5 185t51 193t42.5 187.5h340q-31 -139 -72.5 -274.5t-87.5 -258.5t-93.5 -229.5t-90.5 -190.5q-47 -92 -105.5 -177t-141 -150.5t-198.5 -105.5t-276 -42l-28 287q109 0 195.5 28.5t129.5 94.5zM377 1249l410 264l121 -225 l-451 -186z" />
<glyph unicode="&#xfe;" horiz-adv-x="1136" d="M109 -385v1753h342v-418q35 29 85 47.5t115 18.5q98 0 177 -39t132.5 -108.5t82 -164.5t28.5 -206q0 -109 -30.5 -204t-89 -166t-143.5 -111t-194 -40q-47 0 -89 8.5t-74 22.5v-393h-342zM451 270q20 -10 41.5 -17t52.5 -7q92 0 141 70.5t49 179.5q0 119 -44 189.5 t-122 70.5q-37 0 -67.5 -16.5t-50.5 -41.5v-428z" />
<glyph unicode="&#xff;" horiz-adv-x="1134" d="M-12 1008h377l208 -729q31 74 61 163.5t56.5 185t51 193t42.5 187.5h340q-31 -139 -72.5 -274.5t-87.5 -258.5t-93.5 -229.5t-90.5 -190.5q-47 -92 -105.5 -177t-141 -150.5t-198.5 -105.5t-276 -42l-28 287q109 0 195.5 28.5t129.5 94.5zM217 1303q0 66 43 107.5 t110 41.5q66 0 110 -42t44 -107q0 -63 -44 -105.5t-110 -42.5q-68 0 -110.5 42t-42.5 106zM651 1303q0 66 43 107.5t110 41.5q66 0 110 -42t44 -107q0 -63 -44 -105.5t-110 -42.5q-68 0 -110.5 42t-42.5 106z" />
<glyph unicode="&#x152;" horiz-adv-x="1916" d="M72 684q0 158 52 284t144 215t221 137t283 48h1053v-321h-574v-218h467v-292h-467v-218h615v-319h-1094q-166 0 -296 48t-220 137t-137 216t-47 283zM434 684q0 -86 25.5 -154.5t69.5 -116.5t104.5 -74t132.5 -26h131v740h-131q-72 0 -132.5 -24.5t-105.5 -72t-69.5 -116 t-24.5 -156.5z" />
<glyph unicode="&#x153;" horiz-adv-x="1722" d="M61 510q0 113 34 209t98.5 164.5t156.5 107.5t211 39q211 0 328 -158q59 74 139 116t195 42q98 0 180 -37t140.5 -111.5t91 -186t32.5 -261.5h-616q4 -92 59 -141t158 -49q86 0 143 31.5t113 78.5l100 -241q-25 -23 -60.5 -45.5t-81.5 -43t-102.5 -32.5t-122.5 -12 q-131 0 -227 45t-149 110q-57 -61 -138 -108t-211 -47q-117 0 -204.5 38.5t-147 108.5t-89.5 167t-30 216zM399 510q0 -121 40 -194.5t122 -73.5q84 0 124 73.5t40 194.5q0 117 -41 186.5t-123 69.5q-80 0 -121 -69.5t-41 -186.5zM1053 625h295q-4 78 -44 127t-100 49 q-63 0 -104 -47t-47 -129z" />
<glyph unicode="&#x178;" horiz-adv-x="1245" d="M-12 1368h397l246 -481l233 481h393l-456 -836v-532h-350v532zM263 1637q0 66 43 107.5t110 41.5q66 0 110 -42t44 -107q0 -63 -44 -105.5t-110 -42.5q-68 0 -110.5 42t-42.5 106zM697 1637q0 66 43 107.5t110 41.5q66 0 110 -42t44 -107q0 -63 -44 -105.5t-110 -42.5 q-68 0 -110.5 42t-42.5 106z" />
<glyph unicode="&#x2c6;" horiz-adv-x="880" d="M104 1237l242 250h193l237 -250l-145 -133l-191 194l-202 -194z" />
<glyph unicode="&#x2dc;" horiz-adv-x="880" d="M45 1219q33 117 98.5 178t151.5 61q49 0 127 -37q80 -37 125 -37q47 0 70.5 25t35.5 66l181 -62q-20 -113 -79 -182.5t-169 -69.5q-63 0 -144 39q-80 39 -120 39q-70 0 -105 -96z" />
<glyph unicode="&#x2000;" horiz-adv-x="979" />
<glyph unicode="&#x2001;" horiz-adv-x="1958" />
<glyph unicode="&#x2002;" horiz-adv-x="979" />
<glyph unicode="&#x2003;" horiz-adv-x="1958" />
<glyph unicode="&#x2004;" horiz-adv-x="652" />
<glyph unicode="&#x2005;" horiz-adv-x="489" />
<glyph unicode="&#x2006;" horiz-adv-x="326" />
<glyph unicode="&#x2007;" horiz-adv-x="326" />
<glyph unicode="&#x2008;" horiz-adv-x="244" />
<glyph unicode="&#x2009;" horiz-adv-x="391" />
<glyph unicode="&#x200a;" horiz-adv-x="108" />
<glyph unicode="&#x2010;" horiz-adv-x="643" d="M53 412v290h537v-290h-537z" />
<glyph unicode="&#x2011;" horiz-adv-x="643" d="M53 412v290h537v-290h-537z" />
<glyph unicode="&#x2012;" horiz-adv-x="643" d="M53 412v290h537v-290h-537z" />
<glyph unicode="&#x2013;" horiz-adv-x="972" d="M0 401v246h973v-246h-973z" />
<glyph unicode="&#x2014;" horiz-adv-x="1945" d="M0 401v246h1946v-246h-1946z" />
<glyph unicode="&#x2018;" horiz-adv-x="460" d="M33 981q0 94 58.5 194.5t187.5 192.5l88 -111q-35 -25 -72 -64.5t-47 -70.5q66 -10 109.5 -57t43.5 -119t-46 -125t-132 -53t-138 59.5t-52 153.5z" />
<glyph unicode="&#x2019;" horiz-adv-x="460" d="M57 1190q0 72 46.5 125t132.5 53t138 -59.5t52 -153.5t-58.5 -194.5t-187.5 -192.5l-88 111q35 25 72 64.5t47 70.5q-66 10 -110 57t-44 119z" />
<glyph unicode="&#x201a;" horiz-adv-x="481" d="M51 141q0 72 46 125t132 53t138.5 -59t52.5 -154q0 -94 -58.5 -194.5t-187.5 -192.5l-88 111q35 25 72 64.5t47 70.5q-66 10 -110 57.5t-44 118.5z" />
<glyph unicode="&#x201c;" horiz-adv-x="944" d="M33 981q0 94 58.5 194.5t187.5 192.5l88 -111q-35 -25 -72 -64.5t-47 -70.5q66 -10 109.5 -57t43.5 -119t-46 -125t-132 -53t-138 59.5t-52 153.5zM516 981q0 94 58.5 194.5t187.5 192.5l88 -111q-35 -25 -72 -64.5t-47 -70.5q66 -10 109.5 -57t43.5 -119t-46 -125 t-132 -53t-138 59.5t-52 153.5z" />
<glyph unicode="&#x201d;" horiz-adv-x="944" d="M57 1190q0 72 46.5 125t132.5 53t138 -59.5t52 -153.5t-58.5 -194.5t-187.5 -192.5l-88 111q35 25 72 64.5t47 70.5q-66 10 -110 57t-44 119zM540 1190q0 72 46.5 125t132.5 53t138 -59.5t52 -153.5t-58.5 -194.5t-187.5 -192.5l-88 111q35 25 72 64.5t47 70.5 q-66 10 -110 57t-44 119z" />
<glyph unicode="&#x201e;" horiz-adv-x="964" d="M51 141q0 72 46 125t132 53t138.5 -59t52.5 -154q0 -94 -58.5 -194.5t-187.5 -192.5l-88 111q35 25 72 64.5t47 70.5q-66 10 -110 57.5t-44 118.5zM534 141q0 72 46 125t132 53t138.5 -59t52.5 -154q0 -94 -58.5 -194.5t-187.5 -192.5l-88 111q35 25 72 64.5t47 70.5 q-66 10 -110 57.5t-44 118.5z" />
<glyph unicode="&#x2022;" horiz-adv-x="999" d="M78 748q0 86 33.5 162.5t91 134t135.5 91t164 33.5t163.5 -33.5t135 -91t91.5 -134t34 -162.5t-34 -163t-91.5 -134.5t-135 -91t-163.5 -33.5t-164 33.5t-135.5 91t-91 134.5t-33.5 163z" />
<glyph unicode="&#x2026;" horiz-adv-x="1492" d="M59 150q0 74 48.5 121.5t130.5 47.5q78 0 126 -48t48 -121q0 -74 -47 -122t-127 -48q-82 0 -130.5 48t-48.5 122zM569 150q0 74 48.5 121.5t130.5 47.5q78 0 126 -48t48 -121q0 -74 -47 -122t-127 -48q-82 0 -130.5 48t-48.5 122zM1079 150q0 74 48.5 121.5t129.5 47.5 q78 0 126.5 -48t48.5 -121q0 -74 -47.5 -122t-127.5 -48q-82 0 -130 48t-48 122z" />
<glyph unicode="&#x202f;" horiz-adv-x="391" />
<glyph unicode="&#x2039;" horiz-adv-x="600" d="M25 510l311 416l248 -191l-176 -209l182 -198l-230 -213z" />
<glyph unicode="&#x203a;" horiz-adv-x="600" d="M10 709l232 213l331 -396l-309 -415l-246 190l177 209z" />
<glyph unicode="&#x205f;" horiz-adv-x="489" />
<glyph unicode="&#x20ac;" d="M41 539v288h115q4 109 37.5 209.5t100 177t165 121.5t231.5 45q82 0 147.5 -19.5t116 -49t88 -65.5t66.5 -70l-176 -209q-53 66 -103.5 102.5t-121.5 36.5q-88 0 -137.5 -68.5t-53.5 -210.5h244v-288h-246q2 -55 15.5 -106.5t40 -89.5t68.5 -61.5t101 -23.5 q78 0 140.5 41t109.5 88l117 -256q-23 -23 -59.5 -49.5t-86 -49t-114 -37.5t-141.5 -15q-139 0 -241 41.5t-169.5 117.5t-102 177.5t-38.5 222.5h-113z" />
<glyph unicode="&#x2122;" horiz-adv-x="1257" d="M37 1204v162h461v-162h-144v-426h-170v426h-147zM573 778v588h209l109 -319l104 319h207v-588h-151v318l-113 -322h-94l-117 316v-312h-154z" />
<glyph unicode="&#x25fc;" horiz-adv-x="1003" d="M0 0v1004h1004v-1004h-1004z" />
</font>
</defs>
</svg>
